<mxfile host="app.diagrams.net" agent="Mozilla/5.0 (Windows NT 10.0; Win64; x64; rv:139.0) Gecko/20100101 Firefox/139.0" version="27.1.4">
  <diagram name="Page-1" id="IHhMHUG9txfz_9CSqJ8i">
    <mxGraphModel dx="1678" dy="940" grid="1" gridSize="10" guides="1" tooltips="1" connect="1" arrows="1" fold="1" page="1" pageScale="1" pageWidth="850" pageHeight="1100" math="0" shadow="0">
      <root>
        <mxCell id="0" />
        <mxCell id="1" parent="0" />
        <mxCell id="0vK9zKnLlR3r0MRjecoD-3" style="edgeStyle=orthogonalEdgeStyle;rounded=0;orthogonalLoop=1;jettySize=auto;html=1;entryX=0;entryY=0.5;entryDx=0;entryDy=0;" edge="1" parent="1" source="0vK9zKnLlR3r0MRjecoD-1" target="0vK9zKnLlR3r0MRjecoD-2">
          <mxGeometry relative="1" as="geometry" />
        </mxCell>
        <mxCell id="0vK9zKnLlR3r0MRjecoD-6" value="&quot;A&quot;" style="edgeLabel;html=1;align=center;verticalAlign=middle;resizable=0;points=[];" vertex="1" connectable="0" parent="0vK9zKnLlR3r0MRjecoD-3">
          <mxGeometry x="0.1" relative="1" as="geometry">
            <mxPoint x="-4" as="offset" />
          </mxGeometry>
        </mxCell>
        <mxCell id="0vK9zKnLlR3r0MRjecoD-5" style="edgeStyle=orthogonalEdgeStyle;rounded=0;orthogonalLoop=1;jettySize=auto;html=1;entryX=0.5;entryY=0;entryDx=0;entryDy=0;" edge="1" parent="1" source="0vK9zKnLlR3r0MRjecoD-1" target="0vK9zKnLlR3r0MRjecoD-4">
          <mxGeometry relative="1" as="geometry" />
        </mxCell>
        <mxCell id="0vK9zKnLlR3r0MRjecoD-7" value="id_materia" style="edgeLabel;html=1;align=center;verticalAlign=middle;resizable=0;points=[];" vertex="1" connectable="0" parent="0vK9zKnLlR3r0MRjecoD-5">
          <mxGeometry x="0.075" relative="1" as="geometry">
            <mxPoint y="17" as="offset" />
          </mxGeometry>
        </mxCell>
        <mxCell id="0vK9zKnLlR3r0MRjecoD-74" style="edgeStyle=orthogonalEdgeStyle;rounded=0;orthogonalLoop=1;jettySize=auto;html=1;entryX=0;entryY=0.25;entryDx=0;entryDy=0;" edge="1" parent="1" source="0vK9zKnLlR3r0MRjecoD-1" target="0vK9zKnLlR3r0MRjecoD-75">
          <mxGeometry relative="1" as="geometry">
            <mxPoint x="400" y="40" as="targetPoint" />
            <Array as="points">
              <mxPoint x="100" y="20" />
            </Array>
          </mxGeometry>
        </mxCell>
        <mxCell id="0vK9zKnLlR3r0MRjecoD-81" value="&quot;B&quot;" style="edgeLabel;html=1;align=center;verticalAlign=middle;resizable=0;points=[];" vertex="1" connectable="0" parent="0vK9zKnLlR3r0MRjecoD-74">
          <mxGeometry x="0.1165" relative="1" as="geometry">
            <mxPoint x="-1" as="offset" />
          </mxGeometry>
        </mxCell>
        <mxCell id="0vK9zKnLlR3r0MRjecoD-76" style="edgeStyle=orthogonalEdgeStyle;rounded=0;orthogonalLoop=1;jettySize=auto;html=1;exitX=0;exitY=0.25;exitDx=0;exitDy=0;" edge="1" parent="1" source="0vK9zKnLlR3r0MRjecoD-1">
          <mxGeometry relative="1" as="geometry">
            <mxPoint x="20" y="100.14285714285711" as="targetPoint" />
          </mxGeometry>
        </mxCell>
        <mxCell id="0vK9zKnLlR3r0MRjecoD-77" value="&quot;S&quot;" style="edgeLabel;html=1;align=center;verticalAlign=middle;resizable=0;points=[];" vertex="1" connectable="0" parent="0vK9zKnLlR3r0MRjecoD-76">
          <mxGeometry x="0.0238" relative="1" as="geometry">
            <mxPoint as="offset" />
          </mxGeometry>
        </mxCell>
        <mxCell id="0vK9zKnLlR3r0MRjecoD-1" value="&lt;div&gt;Mostrar&lt;/div&gt;&lt;div&gt;(inicial)&lt;/div&gt;" style="whiteSpace=wrap;html=1;aspect=fixed;" vertex="1" parent="1">
          <mxGeometry x="80" y="80" width="80" height="80" as="geometry" />
        </mxCell>
        <mxCell id="0vK9zKnLlR3r0MRjecoD-47" style="edgeStyle=orthogonalEdgeStyle;rounded=0;orthogonalLoop=1;jettySize=auto;html=1;entryX=1;entryY=0;entryDx=0;entryDy=0;" edge="1" parent="1" source="0vK9zKnLlR3r0MRjecoD-2" target="0vK9zKnLlR3r0MRjecoD-1">
          <mxGeometry relative="1" as="geometry">
            <mxPoint x="120" y="40" as="targetPoint" />
            <Array as="points">
              <mxPoint x="220" y="80" />
              <mxPoint x="220" y="80" />
            </Array>
          </mxGeometry>
        </mxCell>
        <mxCell id="0vK9zKnLlR3r0MRjecoD-48" value="datos" style="edgeLabel;html=1;align=center;verticalAlign=middle;resizable=0;points=[];" vertex="1" connectable="0" parent="0vK9zKnLlR3r0MRjecoD-47">
          <mxGeometry x="-0.025" relative="1" as="geometry">
            <mxPoint x="-3" as="offset" />
          </mxGeometry>
        </mxCell>
        <mxCell id="0vK9zKnLlR3r0MRjecoD-2" value="Agregar" style="whiteSpace=wrap;html=1;aspect=fixed;" vertex="1" parent="1">
          <mxGeometry x="240" y="80" width="80" height="80" as="geometry" />
        </mxCell>
        <mxCell id="0vK9zKnLlR3r0MRjecoD-10" style="edgeStyle=orthogonalEdgeStyle;rounded=0;orthogonalLoop=1;jettySize=auto;html=1;entryX=0;entryY=0.5;entryDx=0;entryDy=0;" edge="1" parent="1" source="0vK9zKnLlR3r0MRjecoD-4" target="0vK9zKnLlR3r0MRjecoD-9">
          <mxGeometry relative="1" as="geometry" />
        </mxCell>
        <mxCell id="0vK9zKnLlR3r0MRjecoD-12" value="&quot;M&quot;" style="edgeLabel;html=1;align=center;verticalAlign=middle;resizable=0;points=[];" vertex="1" connectable="0" parent="0vK9zKnLlR3r0MRjecoD-10">
          <mxGeometry x="0.025" relative="1" as="geometry">
            <mxPoint x="-1" as="offset" />
          </mxGeometry>
        </mxCell>
        <mxCell id="0vK9zKnLlR3r0MRjecoD-11" style="edgeStyle=orthogonalEdgeStyle;rounded=0;orthogonalLoop=1;jettySize=auto;html=1;entryX=0.5;entryY=0;entryDx=0;entryDy=0;" edge="1" parent="1" source="0vK9zKnLlR3r0MRjecoD-4" target="0vK9zKnLlR3r0MRjecoD-8">
          <mxGeometry relative="1" as="geometry" />
        </mxCell>
        <mxCell id="0vK9zKnLlR3r0MRjecoD-13" value="&quot;E&quot;" style="edgeLabel;html=1;align=center;verticalAlign=middle;resizable=0;points=[];" vertex="1" connectable="0" parent="0vK9zKnLlR3r0MRjecoD-11">
          <mxGeometry x="-0.025" y="1" relative="1" as="geometry">
            <mxPoint x="-1" y="1" as="offset" />
          </mxGeometry>
        </mxCell>
        <mxCell id="0vK9zKnLlR3r0MRjecoD-14" style="edgeStyle=orthogonalEdgeStyle;rounded=0;orthogonalLoop=1;jettySize=auto;html=1;" edge="1" parent="1" source="0vK9zKnLlR3r0MRjecoD-4">
          <mxGeometry relative="1" as="geometry">
            <mxPoint x="80" y="140" as="targetPoint" />
            <Array as="points">
              <mxPoint x="60" y="280" />
              <mxPoint x="60" y="140" />
            </Array>
          </mxGeometry>
        </mxCell>
        <mxCell id="0vK9zKnLlR3r0MRjecoD-15" value="&quot;V&quot;" style="edgeLabel;html=1;align=center;verticalAlign=middle;resizable=0;points=[];" vertex="1" connectable="0" parent="0vK9zKnLlR3r0MRjecoD-14">
          <mxGeometry relative="1" as="geometry">
            <mxPoint y="-10" as="offset" />
          </mxGeometry>
        </mxCell>
        <mxCell id="0vK9zKnLlR3r0MRjecoD-23" style="edgeStyle=orthogonalEdgeStyle;rounded=0;orthogonalLoop=1;jettySize=auto;html=1;exitX=1;exitY=1;exitDx=0;exitDy=0;entryX=0.5;entryY=0;entryDx=0;entryDy=0;" edge="1" parent="1" source="0vK9zKnLlR3r0MRjecoD-4" target="0vK9zKnLlR3r0MRjecoD-22">
          <mxGeometry relative="1" as="geometry">
            <Array as="points">
              <mxPoint x="160" y="360" />
              <mxPoint x="280" y="360" />
            </Array>
          </mxGeometry>
        </mxCell>
        <mxCell id="0vK9zKnLlR3r0MRjecoD-30" value="&quot;N&quot;" style="edgeLabel;html=1;align=center;verticalAlign=middle;resizable=0;points=[];" vertex="1" connectable="0" parent="0vK9zKnLlR3r0MRjecoD-23">
          <mxGeometry x="0.0125" y="2" relative="1" as="geometry">
            <mxPoint x="29" y="2" as="offset" />
          </mxGeometry>
        </mxCell>
        <mxCell id="0vK9zKnLlR3r0MRjecoD-4" value="&lt;div&gt;Seleccionada&lt;/div&gt;&lt;div&gt;(muestra info)&lt;/div&gt;" style="whiteSpace=wrap;html=1;aspect=fixed;" vertex="1" parent="1">
          <mxGeometry x="80" y="240" width="80" height="80" as="geometry" />
        </mxCell>
        <mxCell id="0vK9zKnLlR3r0MRjecoD-16" style="edgeStyle=orthogonalEdgeStyle;rounded=0;orthogonalLoop=1;jettySize=auto;html=1;entryX=0;entryY=0.5;entryDx=0;entryDy=0;" edge="1" parent="1" source="0vK9zKnLlR3r0MRjecoD-8" target="0vK9zKnLlR3r0MRjecoD-1">
          <mxGeometry relative="1" as="geometry">
            <mxPoint x="40" y="120" as="targetPoint" />
            <Array as="points">
              <mxPoint x="40" y="440" />
              <mxPoint x="40" y="120" />
            </Array>
          </mxGeometry>
        </mxCell>
        <mxCell id="0vK9zKnLlR3r0MRjecoD-17" value="&lt;div&gt;&quot;S&quot;&lt;/div&gt;&lt;div&gt;(lo elimina)&lt;/div&gt;" style="edgeLabel;html=1;align=center;verticalAlign=middle;resizable=0;points=[];" vertex="1" connectable="0" parent="0vK9zKnLlR3r0MRjecoD-16">
          <mxGeometry x="0.198" y="1" relative="1" as="geometry">
            <mxPoint x="1" y="119" as="offset" />
          </mxGeometry>
        </mxCell>
        <mxCell id="0vK9zKnLlR3r0MRjecoD-50" style="edgeStyle=orthogonalEdgeStyle;rounded=0;orthogonalLoop=1;jettySize=auto;html=1;exitX=0.25;exitY=0;exitDx=0;exitDy=0;entryX=0.25;entryY=1;entryDx=0;entryDy=0;" edge="1" parent="1" source="0vK9zKnLlR3r0MRjecoD-8" target="0vK9zKnLlR3r0MRjecoD-4">
          <mxGeometry relative="1" as="geometry" />
        </mxCell>
        <mxCell id="0vK9zKnLlR3r0MRjecoD-51" value="&quot;N&quot;" style="edgeLabel;html=1;align=center;verticalAlign=middle;resizable=0;points=[];" vertex="1" connectable="0" parent="0vK9zKnLlR3r0MRjecoD-50">
          <mxGeometry x="-0.0119" y="1" relative="1" as="geometry">
            <mxPoint x="1" as="offset" />
          </mxGeometry>
        </mxCell>
        <mxCell id="0vK9zKnLlR3r0MRjecoD-8" value="Eliminar" style="whiteSpace=wrap;html=1;aspect=fixed;" vertex="1" parent="1">
          <mxGeometry x="80" y="400" width="80" height="80" as="geometry" />
        </mxCell>
        <mxCell id="0vK9zKnLlR3r0MRjecoD-20" style="edgeStyle=orthogonalEdgeStyle;rounded=0;orthogonalLoop=1;jettySize=auto;html=1;entryX=0.75;entryY=1;entryDx=0;entryDy=0;" edge="1" parent="1" source="0vK9zKnLlR3r0MRjecoD-9" target="0vK9zKnLlR3r0MRjecoD-1">
          <mxGeometry relative="1" as="geometry">
            <mxPoint x="160" y="200" as="targetPoint" />
            <Array as="points">
              <mxPoint x="280" y="200" />
              <mxPoint x="140" y="200" />
            </Array>
          </mxGeometry>
        </mxCell>
        <mxCell id="0vK9zKnLlR3r0MRjecoD-21" value="&quot;S&quot; (la elimina)" style="edgeLabel;html=1;align=center;verticalAlign=middle;resizable=0;points=[];" vertex="1" connectable="0" parent="0vK9zKnLlR3r0MRjecoD-20">
          <mxGeometry x="0.1182" y="2" relative="1" as="geometry">
            <mxPoint x="3" y="-2" as="offset" />
          </mxGeometry>
        </mxCell>
        <mxCell id="0vK9zKnLlR3r0MRjecoD-53" value="" style="edgeStyle=orthogonalEdgeStyle;rounded=0;orthogonalLoop=1;jettySize=auto;html=1;" edge="1" parent="1" source="0vK9zKnLlR3r0MRjecoD-9" target="0vK9zKnLlR3r0MRjecoD-52">
          <mxGeometry relative="1" as="geometry" />
        </mxCell>
        <mxCell id="0vK9zKnLlR3r0MRjecoD-55" value="atributo" style="edgeLabel;html=1;align=center;verticalAlign=middle;resizable=0;points=[];" vertex="1" connectable="0" parent="0vK9zKnLlR3r0MRjecoD-53">
          <mxGeometry x="-0.0036" relative="1" as="geometry">
            <mxPoint as="offset" />
          </mxGeometry>
        </mxCell>
        <mxCell id="0vK9zKnLlR3r0MRjecoD-60" style="edgeStyle=orthogonalEdgeStyle;rounded=0;orthogonalLoop=1;jettySize=auto;html=1;exitX=1;exitY=0.25;exitDx=0;exitDy=0;entryX=0;entryY=0.5;entryDx=0;entryDy=0;" edge="1" parent="1" source="0vK9zKnLlR3r0MRjecoD-9" target="0vK9zKnLlR3r0MRjecoD-59">
          <mxGeometry relative="1" as="geometry">
            <mxPoint x="360" y="160" as="targetPoint" />
          </mxGeometry>
        </mxCell>
        <mxCell id="0vK9zKnLlR3r0MRjecoD-61" value="id_nota" style="edgeLabel;html=1;align=center;verticalAlign=middle;resizable=0;points=[];" vertex="1" connectable="0" parent="0vK9zKnLlR3r0MRjecoD-60">
          <mxGeometry x="-0.0422" y="-1" relative="1" as="geometry">
            <mxPoint x="-1" y="-14" as="offset" />
          </mxGeometry>
        </mxCell>
        <mxCell id="0vK9zKnLlR3r0MRjecoD-9" value="Modificar" style="whiteSpace=wrap;html=1;aspect=fixed;" vertex="1" parent="1">
          <mxGeometry x="240" y="240" width="80" height="80" as="geometry" />
        </mxCell>
        <mxCell id="0vK9zKnLlR3r0MRjecoD-27" style="edgeStyle=orthogonalEdgeStyle;rounded=0;orthogonalLoop=1;jettySize=auto;html=1;entryX=0;entryY=0.5;entryDx=0;entryDy=0;" edge="1" parent="1" source="0vK9zKnLlR3r0MRjecoD-22" target="0vK9zKnLlR3r0MRjecoD-24">
          <mxGeometry relative="1" as="geometry" />
        </mxCell>
        <mxCell id="0vK9zKnLlR3r0MRjecoD-31" value="&quot;P&quot;" style="edgeLabel;html=1;align=center;verticalAlign=middle;resizable=0;points=[];" vertex="1" connectable="0" parent="0vK9zKnLlR3r0MRjecoD-27">
          <mxGeometry x="0.6167" y="-1" relative="1" as="geometry">
            <mxPoint x="21" y="29" as="offset" />
          </mxGeometry>
        </mxCell>
        <mxCell id="0vK9zKnLlR3r0MRjecoD-28" style="edgeStyle=orthogonalEdgeStyle;rounded=0;orthogonalLoop=1;jettySize=auto;html=1;exitX=0.5;exitY=1;exitDx=0;exitDy=0;entryX=0;entryY=0.5;entryDx=0;entryDy=0;" edge="1" parent="1" source="0vK9zKnLlR3r0MRjecoD-22" target="0vK9zKnLlR3r0MRjecoD-25">
          <mxGeometry relative="1" as="geometry" />
        </mxCell>
        <mxCell id="0vK9zKnLlR3r0MRjecoD-32" value="&quot;F&quot;" style="edgeLabel;html=1;align=center;verticalAlign=middle;resizable=0;points=[];" vertex="1" connectable="0" parent="0vK9zKnLlR3r0MRjecoD-28">
          <mxGeometry x="0.8083" y="-1" relative="1" as="geometry">
            <mxPoint x="3" y="-1" as="offset" />
          </mxGeometry>
        </mxCell>
        <mxCell id="0vK9zKnLlR3r0MRjecoD-29" style="edgeStyle=orthogonalEdgeStyle;rounded=0;orthogonalLoop=1;jettySize=auto;html=1;exitX=0.5;exitY=1;exitDx=0;exitDy=0;entryX=0;entryY=0.5;entryDx=0;entryDy=0;" edge="1" parent="1" source="0vK9zKnLlR3r0MRjecoD-22" target="0vK9zKnLlR3r0MRjecoD-26">
          <mxGeometry relative="1" as="geometry" />
        </mxCell>
        <mxCell id="0vK9zKnLlR3r0MRjecoD-33" value="&quot;R&quot;" style="edgeLabel;html=1;align=center;verticalAlign=middle;resizable=0;points=[];" vertex="1" connectable="0" parent="0vK9zKnLlR3r0MRjecoD-29">
          <mxGeometry x="0.8778" relative="1" as="geometry">
            <mxPoint x="-12" as="offset" />
          </mxGeometry>
        </mxCell>
        <mxCell id="0vK9zKnLlR3r0MRjecoD-22" value="Agregar nota" style="whiteSpace=wrap;html=1;aspect=fixed;" vertex="1" parent="1">
          <mxGeometry x="240" y="400" width="80" height="80" as="geometry" />
        </mxCell>
        <mxCell id="0vK9zKnLlR3r0MRjecoD-39" style="edgeStyle=orthogonalEdgeStyle;rounded=0;orthogonalLoop=1;jettySize=auto;html=1;" edge="1" parent="1" source="0vK9zKnLlR3r0MRjecoD-24">
          <mxGeometry relative="1" as="geometry">
            <mxPoint x="520" y="800" as="targetPoint" />
          </mxGeometry>
        </mxCell>
        <mxCell id="0vK9zKnLlR3r0MRjecoD-42" value="valor" style="edgeLabel;html=1;align=center;verticalAlign=middle;resizable=0;points=[];" vertex="1" connectable="0" parent="0vK9zKnLlR3r0MRjecoD-39">
          <mxGeometry x="0.0113" y="-1" relative="1" as="geometry">
            <mxPoint y="-2" as="offset" />
          </mxGeometry>
        </mxCell>
        <mxCell id="0vK9zKnLlR3r0MRjecoD-24" value="Agregar parcial" style="whiteSpace=wrap;html=1;aspect=fixed;" vertex="1" parent="1">
          <mxGeometry x="320" y="760" width="80" height="80" as="geometry" />
        </mxCell>
        <mxCell id="0vK9zKnLlR3r0MRjecoD-38" style="edgeStyle=orthogonalEdgeStyle;rounded=0;orthogonalLoop=1;jettySize=auto;html=1;" edge="1" parent="1" source="0vK9zKnLlR3r0MRjecoD-25">
          <mxGeometry relative="1" as="geometry">
            <mxPoint x="520" y="680" as="targetPoint" />
          </mxGeometry>
        </mxCell>
        <mxCell id="0vK9zKnLlR3r0MRjecoD-41" value="valor" style="edgeLabel;html=1;align=center;verticalAlign=middle;resizable=0;points=[];" vertex="1" connectable="0" parent="0vK9zKnLlR3r0MRjecoD-38">
          <mxGeometry x="-0.134" y="1" relative="1" as="geometry">
            <mxPoint x="8" y="1" as="offset" />
          </mxGeometry>
        </mxCell>
        <mxCell id="0vK9zKnLlR3r0MRjecoD-25" value="Agregar final" style="whiteSpace=wrap;html=1;aspect=fixed;" vertex="1" parent="1">
          <mxGeometry x="320" y="640" width="80" height="80" as="geometry" />
        </mxCell>
        <mxCell id="0vK9zKnLlR3r0MRjecoD-35" style="edgeStyle=orthogonalEdgeStyle;rounded=0;orthogonalLoop=1;jettySize=auto;html=1;entryX=0;entryY=0.5;entryDx=0;entryDy=0;" edge="1" parent="1" source="0vK9zKnLlR3r0MRjecoD-26" target="0vK9zKnLlR3r0MRjecoD-34">
          <mxGeometry relative="1" as="geometry" />
        </mxCell>
        <mxCell id="0vK9zKnLlR3r0MRjecoD-36" value="id_nota" style="edgeLabel;html=1;align=center;verticalAlign=middle;resizable=0;points=[];" vertex="1" connectable="0" parent="0vK9zKnLlR3r0MRjecoD-35">
          <mxGeometry x="0.0167" relative="1" as="geometry">
            <mxPoint x="-1" as="offset" />
          </mxGeometry>
        </mxCell>
        <mxCell id="0vK9zKnLlR3r0MRjecoD-26" value="Agregar recuperatorio" style="whiteSpace=wrap;html=1;aspect=fixed;" vertex="1" parent="1">
          <mxGeometry x="320" y="520" width="80" height="80" as="geometry" />
        </mxCell>
        <mxCell id="0vK9zKnLlR3r0MRjecoD-37" style="edgeStyle=orthogonalEdgeStyle;rounded=0;orthogonalLoop=1;jettySize=auto;html=1;entryX=0.75;entryY=1;entryDx=0;entryDy=0;" edge="1" parent="1" source="0vK9zKnLlR3r0MRjecoD-34" target="0vK9zKnLlR3r0MRjecoD-4">
          <mxGeometry relative="1" as="geometry">
            <mxPoint x="170" y="380" as="targetPoint" />
            <Array as="points">
              <mxPoint x="520" y="880" />
              <mxPoint x="200" y="880" />
              <mxPoint x="200" y="380" />
              <mxPoint x="140" y="380" />
            </Array>
          </mxGeometry>
        </mxCell>
        <mxCell id="0vK9zKnLlR3r0MRjecoD-40" value="valor" style="edgeLabel;html=1;align=center;verticalAlign=middle;resizable=0;points=[];" vertex="1" connectable="0" parent="0vK9zKnLlR3r0MRjecoD-37">
          <mxGeometry x="-0.9385" relative="1" as="geometry">
            <mxPoint y="1" as="offset" />
          </mxGeometry>
        </mxCell>
        <mxCell id="0vK9zKnLlR3r0MRjecoD-34" value="Nota seleccionada" style="whiteSpace=wrap;html=1;aspect=fixed;" vertex="1" parent="1">
          <mxGeometry x="480" y="520" width="80" height="80" as="geometry" />
        </mxCell>
        <mxCell id="0vK9zKnLlR3r0MRjecoD-56" style="edgeStyle=orthogonalEdgeStyle;rounded=0;orthogonalLoop=1;jettySize=auto;html=1;entryX=1;entryY=0.75;entryDx=0;entryDy=0;" edge="1" parent="1" source="0vK9zKnLlR3r0MRjecoD-52" target="0vK9zKnLlR3r0MRjecoD-4">
          <mxGeometry relative="1" as="geometry">
            <mxPoint x="200" y="300" as="targetPoint" />
            <Array as="points">
              <mxPoint x="440" y="340" />
              <mxPoint x="200" y="340" />
              <mxPoint x="200" y="300" />
            </Array>
          </mxGeometry>
        </mxCell>
        <mxCell id="0vK9zKnLlR3r0MRjecoD-57" value="valor" style="edgeLabel;html=1;align=center;verticalAlign=middle;resizable=0;points=[];" vertex="1" connectable="0" parent="0vK9zKnLlR3r0MRjecoD-56">
          <mxGeometry x="-0.4208" relative="1" as="geometry">
            <mxPoint x="-2" as="offset" />
          </mxGeometry>
        </mxCell>
        <mxCell id="0vK9zKnLlR3r0MRjecoD-52" value="Atributo seleccionado" style="whiteSpace=wrap;html=1;aspect=fixed;" vertex="1" parent="1">
          <mxGeometry x="400" y="240" width="80" height="80" as="geometry" />
        </mxCell>
        <mxCell id="0vK9zKnLlR3r0MRjecoD-62" style="edgeStyle=orthogonalEdgeStyle;rounded=0;orthogonalLoop=1;jettySize=auto;html=1;entryX=0.5;entryY=0;entryDx=0;entryDy=0;" edge="1" parent="1" source="0vK9zKnLlR3r0MRjecoD-59" target="0vK9zKnLlR3r0MRjecoD-63">
          <mxGeometry relative="1" as="geometry">
            <mxPoint x="560" y="240" as="targetPoint" />
          </mxGeometry>
        </mxCell>
        <mxCell id="0vK9zKnLlR3r0MRjecoD-64" value="&quot;V&quot;" style="edgeLabel;html=1;align=center;verticalAlign=middle;resizable=0;points=[];" vertex="1" connectable="0" parent="0vK9zKnLlR3r0MRjecoD-62">
          <mxGeometry x="0.5089" y="1" relative="1" as="geometry">
            <mxPoint x="-1" y="-1" as="offset" />
          </mxGeometry>
        </mxCell>
        <mxCell id="0vK9zKnLlR3r0MRjecoD-66" style="edgeStyle=orthogonalEdgeStyle;rounded=0;orthogonalLoop=1;jettySize=auto;html=1;entryX=0.5;entryY=0;entryDx=0;entryDy=0;" edge="1" parent="1" source="0vK9zKnLlR3r0MRjecoD-59" target="0vK9zKnLlR3r0MRjecoD-65">
          <mxGeometry relative="1" as="geometry" />
        </mxCell>
        <mxCell id="0vK9zKnLlR3r0MRjecoD-67" value="&quot;R&quot;" style="edgeLabel;html=1;align=center;verticalAlign=middle;resizable=0;points=[];" vertex="1" connectable="0" parent="0vK9zKnLlR3r0MRjecoD-66">
          <mxGeometry x="0.7031" relative="1" as="geometry">
            <mxPoint as="offset" />
          </mxGeometry>
        </mxCell>
        <mxCell id="0vK9zKnLlR3r0MRjecoD-59" value="Parcial seleccionado" style="whiteSpace=wrap;html=1;aspect=fixed;" vertex="1" parent="1">
          <mxGeometry x="400" y="120" width="80" height="80" as="geometry" />
        </mxCell>
        <mxCell id="0vK9zKnLlR3r0MRjecoD-68" style="edgeStyle=orthogonalEdgeStyle;rounded=0;orthogonalLoop=1;jettySize=auto;html=1;" edge="1" parent="1" source="0vK9zKnLlR3r0MRjecoD-63">
          <mxGeometry relative="1" as="geometry">
            <mxPoint x="440" y="340" as="targetPoint" />
            <Array as="points">
              <mxPoint x="560" y="340" />
              <mxPoint x="450" y="340" />
            </Array>
          </mxGeometry>
        </mxCell>
        <mxCell id="0vK9zKnLlR3r0MRjecoD-63" value="Valor nota seleccionado" style="whiteSpace=wrap;html=1;aspect=fixed;" vertex="1" parent="1">
          <mxGeometry x="520" y="240" width="80" height="80" as="geometry" />
        </mxCell>
        <mxCell id="0vK9zKnLlR3r0MRjecoD-69" style="edgeStyle=orthogonalEdgeStyle;rounded=0;orthogonalLoop=1;jettySize=auto;html=1;" edge="1" parent="1" source="0vK9zKnLlR3r0MRjecoD-65">
          <mxGeometry relative="1" as="geometry">
            <mxPoint x="560" y="340" as="targetPoint" />
            <Array as="points">
              <mxPoint x="680" y="340" />
              <mxPoint x="560" y="340" />
            </Array>
          </mxGeometry>
        </mxCell>
        <mxCell id="0vK9zKnLlR3r0MRjecoD-65" value="Valor recuperatorio seleccionado" style="whiteSpace=wrap;html=1;aspect=fixed;" vertex="1" parent="1">
          <mxGeometry x="640" y="240" width="80" height="80" as="geometry" />
        </mxCell>
        <mxCell id="0vK9zKnLlR3r0MRjecoD-70" value="" style="shape=flexArrow;endArrow=classic;html=1;rounded=0;entryX=0;entryY=0;entryDx=0;entryDy=0;" edge="1" parent="1" target="0vK9zKnLlR3r0MRjecoD-1">
          <mxGeometry width="50" height="50" relative="1" as="geometry">
            <mxPoint x="20" y="20" as="sourcePoint" />
            <mxPoint x="240" y="110" as="targetPoint" />
          </mxGeometry>
        </mxCell>
        <mxCell id="0vK9zKnLlR3r0MRjecoD-73" value="INICIO" style="edgeLabel;html=1;align=center;verticalAlign=middle;resizable=0;points=[];" vertex="1" connectable="0" parent="0vK9zKnLlR3r0MRjecoD-70">
          <mxGeometry x="-0.7755" y="-1" relative="1" as="geometry">
            <mxPoint x="14" y="12" as="offset" />
          </mxGeometry>
        </mxCell>
        <mxCell id="0vK9zKnLlR3r0MRjecoD-78" style="edgeStyle=orthogonalEdgeStyle;rounded=0;orthogonalLoop=1;jettySize=auto;html=1;entryX=0.5;entryY=0;entryDx=0;entryDy=0;" edge="1" parent="1" source="0vK9zKnLlR3r0MRjecoD-75" target="0vK9zKnLlR3r0MRjecoD-1">
          <mxGeometry relative="1" as="geometry">
            <mxPoint x="120" y="40" as="targetPoint" />
          </mxGeometry>
        </mxCell>
        <mxCell id="0vK9zKnLlR3r0MRjecoD-80" value="&quot;N&quot;" style="edgeLabel;html=1;align=center;verticalAlign=middle;resizable=0;points=[];" vertex="1" connectable="0" parent="0vK9zKnLlR3r0MRjecoD-78">
          <mxGeometry x="-0.0096" relative="1" as="geometry">
            <mxPoint x="18" as="offset" />
          </mxGeometry>
        </mxCell>
        <mxCell id="0vK9zKnLlR3r0MRjecoD-79" style="edgeStyle=orthogonalEdgeStyle;rounded=0;orthogonalLoop=1;jettySize=auto;html=1;exitX=0;exitY=0.75;exitDx=0;exitDy=0;entryX=0.75;entryY=0;entryDx=0;entryDy=0;" edge="1" parent="1" source="0vK9zKnLlR3r0MRjecoD-75" target="0vK9zKnLlR3r0MRjecoD-1">
          <mxGeometry relative="1" as="geometry">
            <mxPoint x="140" y="60.14285714285711" as="targetPoint" />
          </mxGeometry>
        </mxCell>
        <mxCell id="0vK9zKnLlR3r0MRjecoD-82" value="&quot;S&quot; (borra todo)" style="edgeLabel;html=1;align=center;verticalAlign=middle;resizable=0;points=[];" vertex="1" connectable="0" parent="0vK9zKnLlR3r0MRjecoD-79">
          <mxGeometry x="-0.1376" y="-2" relative="1" as="geometry">
            <mxPoint x="61" as="offset" />
          </mxGeometry>
        </mxCell>
        <mxCell id="0vK9zKnLlR3r0MRjecoD-75" value="Borrar base" style="whiteSpace=wrap;html=1;aspect=fixed;" vertex="1" parent="1">
          <mxGeometry x="400" width="80" height="80" as="geometry" />
        </mxCell>
        <mxCell id="0vK9zKnLlR3r0MRjecoD-84" value="" style="endArrow=none;html=1;rounded=0;" edge="1" parent="1">
          <mxGeometry width="50" height="50" relative="1" as="geometry">
            <mxPoint x="20" y="120" as="sourcePoint" />
            <mxPoint x="20" y="80" as="targetPoint" />
          </mxGeometry>
        </mxCell>
      </root>
    </mxGraphModel>
  </diagram>
</mxfile>
